PathFileType	4	(X/Y/Z)	C:/Users/opensim2020/Desktop/walking_exp_matlab/subject02_walking14_straight_03.trc																																																																																																																									
DataRate	CameraRate	NumFrames	NumMarkers	Units	OrigDataRate	OrigDataStartFrame	OrigNumFrames																																																																																																																					
100	100	9	41	mm	100	1254	127																																																																																																																					
Frame#	Time	LFHD			RFHD			LBHD			RBHD			C7			T10			CLAV			STRN			RBAK			LSHO			LUPA			LELB			LFRM			LWRA			LWRB			LFIN			RSHO			RUPA			RELB			RFRM			RWRA			RWRB			RFIN			LASI			RASI			LPSI			RPSI			LTHI			LKNE			LTIB			LANK			LHEE			LTOE			RTHI			RKNE			RTIB			RANK			RHEE			RTOE			*39			*40		
		X1	Y1	Z1	X2	Y2	Z2	X3	Y3	Z3	X4	Y4	Z4	X5	Y5	Z5	X6	Y6	Z6	X7	Y7	Z7	X8	Y8	Z8	X9	Y9	Z9	X10	Y10	Z10	X11	Y11	Z11	X12	Y12	Z12	X13	Y13	Z13	X14	Y14	Z14	X15	Y15	Z15	X16	Y16	Z16	X17	Y17	Z17	X18	Y18	Z18	X19	Y19	Z19	X20	Y20	Z20	X21	Y21	Z21	X22	Y22	Z22	X23	Y23	Z23	X24	Y24	Z24	X25	Y25	Z25	X26	Y26	Z26	X27	Y27	Z27	X28	Y28	Z28	X29	Y29	Z29	X30	Y30	Z30	X31	Y31	Z31	X32	Y32	Z32	X33	Y33	Z33	X34	Y34	Z34	X35	Y35	Z35	X36	Y36	Z36	X37	Y37	Z37	X38	Y38	Z38	X39	Y39	Z39	X40	Y40	Z40	X41	Y41	Z41
																																																																																																																												
16	0.15	-621.8092	1696.74048	1522.19141	-625.34906	1678.85913	1665.62097	-751.98108	1622.93872	1511.36914	-768.63995	1603.57312	1652.50696	-813.79114	1486.07043	1576.79553	-877.65125	1213.23657	1586.84326	-677.61981	1413.87012	1571.07458	-631.22668	1240.55139	1579.27307	-881.245	1313.42334	1639.31909	-735.39069	1458.7793	1398.7572	-730.74237	1256.70825	1319.89294	-710.06787	1112.08948	1314.50708	-637.68011	1002.61639	1347.35449	-546.71753	942.12677	1432.66089	-569.2691	910.13556	1390.63428	-517.44556	875.41162	1414.57825	-749.87708	1449.12988	1765.18518	-819.11786	1278.04126	1853.65515	-835.60406	1135.78711	1889.48022	-821.36536	1018.33826	1921.53088	-780.63477	888.005	1918.47095	-830.91302	889.72614	1942.66064	-798.05139	827.28741	1957.1189	-681.36316	925.409	1458.33252	-649.60931	948.90161	1704.35535	-873.35114	991.78448	1551.15002	-866.80011	1006.62964	1667.31177	-821.81445	625.62207	1426.26563	-891.98071	447.84506	1456.50952	-1052.91895	344.14603	1469.18628	-1193.33411	169.31253	1502.1814	-1228.28711	179.95543	1556.59509	-1127.08618	27.31179	1512.57825	-636.08264	670.23248	1803.20935	-572.93518	471.78915	1766.34094	-585.62976	285.15771	1795.32947	-596.94269	89.88251	1778.9729	-640.43134	34.05624	1735.62402	-443.76471	36.1506	1767.66052	-724.50378	1762.98145	1609.87781	2845.9458	1034.41528	-3357.47119
17	0.16	-609.80237	1699.12854	1524.1925	-612.80579	1681.41919	1667.66357	-739.84198	1625.04102	1513.91895	-756.01105	1605.8717	1655.13623	-801.40601	1487.79358	1579.646	-863.92188	1214.81982	1590.23547	-664.81635	1416.39478	1573.69873	-617.36371	1243.46716	1582.4021	-867.58856	1314.99158	1642.61304	-723.59595	1460.92188	1401.76917	-721.48621	1258.98328	1322.61047	-702.53888	1114.17078	1316.77344	-631.42822	1003.03198	1347.54944	-539.36084	940.43298	1429.87854	-563.38409	908.74377	1389.23694	-511.90414	873.11676	1410.91101	-736.87109	1451.91846	1767.80969	-802.91052	1279.80493	1857.45654	-816.84991	1137.26086	1893.33093	-800.96429	1020.32013	1925.60388	-758.99078	890.29645	1922.09851	-809.0542	891.48462	1946.77112	-774.59857	829.86877	1960.67358	-666.56665	928.20587	1463.00232	-634.31696	951.51764	1707.59973	-859.11896	993.91833	1553.74463	-851.71808	1008.29596	1670.37341	-800.80658	624.23199	1428.36572	-866.10431	446.45557	1456.96985	-1027.90649	347.30325	1470.39001	-1173.1947	178.31068	1500.71045	-1208.07556	192.48225	1555.29651	-1118.88501	31.86058	1513.16284	-619.05731	671.77087	1804.08301	-563.9353	470.2811	1766.10083	-581.37183	283.95764	1795.01758	-596.2453	89.71464	1778.64905	-640.27991	34.022	1735.40833	-443.397	35.87776	1767.35071	-712.33472	1765.43323	1612.23413	2845.29126	1034.22656	-3360.57104
18	0.17	-597.85553	1701.80591	1525.91956	-600.22644	1684.32825	1669.51514	-727.77014	1627.45276	1516.32581	-743.35321	1608.47266	1657.60999	-789.23108	1489.79224	1582.42566	-850.36157	1216.95752	1593.85986	-651.94507	1419.09229	1576.08411	-604.00854	1246.40173	1584.96082	-854.12585	1317.03052	1645.65063	-711.98236	1463.22144	1404.5177	-712.11365	1261.3501	1325.37354	-694.20905	1116.35242	1319.37988	-625.2326	1003.20264	1347.83704	-532.75958	938.26483	1426.58398	-558.54034	907.18781	1387.42163	-507.71555	870.36304	1406.26831	-723.86115	1454.91345	1770.20288	-786.79919	1281.80969	1861.02454	-798.08807	1139.08264	1896.99426	-780.4035	1022.43762	1929.18604	-736.9295	892.93622	1925.42126	-786.90356	893.58282	1950.66785	-752.64453	831.6264	1964.23743	-652.79572	930.86676	1466.94019	-620.62512	953.54718	1710.01099	-845.3681	996.45441	1556.43237	-837.03882	1010.29901	1673.37207	-778.97614	622.01947	1430.72034	-839.40631	445.09854	1457.09631	-1001.36224	349.39249	1469.98865	-1152.59314	187.85857	1500.68005	-1186.39014	203.99582	1554.6405	-1104.94189	38.33414	1512.25793	-605.02905	673.12042	1804.83289	-556.90125	469.27203	1767.26184	-578.9834	283.12363	1794.94763	-595.84314	89.5995	1778.50427	-640.33508	34.13433	1735.20288	-443.31885	35.76412	1767.27222	-700.13647	1767.99695	1614.31104	2845.28857	1034.18115	-3360.4436
19	0.18	-585.68561	1704.69202	1527.67432	-587.68262	1687.43506	1671.21643	-715.5528	1630.11707	1518.53479	-730.64294	1611.27649	1659.90662	-776.9071	1492.15405	1585.08032	-836.86658	1219.43372	1597.4856	-639.27356	1422.03162	1578.1853	-590.60272	1249.48218	1587.30383	-840.67828	1319.42224	1648.73621	-700.62311	1465.67395	1406.90491	-702.26379	1263.64514	1327.9646	-686.8056	1118.62671	1321.47632	-619.72583	1003.65497	1347.65088	-526.51215	935.98175	1423.12805	-555.33295	905.7345	1385.27283	-504.43988	867.52899	1401.4397	-710.92267	1457.92346	1772.13611	-770.8175	1283.78662	1864.10291	-779.18256	1141.12012	1900.58423	-759.73163	1024.64355	1932.42896	-714.87268	895.7923	1928.39734	-764.33167	895.85657	1954.31091	-729.32581	834.26172	1967.45923	-638.43481	933.75275	1470.78882	-605.57843	956.24506	1713.21777	-831.97186	999.21143	1559.15601	-822.91522	1012.76154	1676.27551	-757.09125	620.84961	1432.71533	-812.08636	444.09854	1456.77246	-974.14697	351.32315	1468.44812	-1131.36902	197.31454	1502.59131	-1163.7135	213.28568	1556.97095	-1086.21936	45.85679	1509.8009	-593.3548	674.95819	1805.65747	-551.9975	468.13885	1768.59302	-577.33673	282.99255	1795.56519	-595.81049	89.58285	1778.45251	-640.3869	34.11731	1735.17139	-443.27524	35.66377	1766.99243	-688.03052	1770.75	1616.18909	2845.96948	1034.30273	-3357.31372
20	0.19	-573.72162	1707.84949	1529.06165	-575.09515	1690.66711	1672.67615	-703.40973	1632.99072	1520.51392	-717.91425	1614.23682	1661.92151	-764.33557	1495.1062	1587.69763	-823.56299	1222.11292	1600.8717	-626.58185	1425.15906	1579.99683	-578.01721	1252.41919	1588.80896	-827.30957	1322.20215	1651.90515	-689.48975	1468.2533	1408.99426	-693.11896	1266.15601	1330.18896	-679.38318	1120.82202	1323.24365	-614.50427	1004.26831	1347.4248	-520.28076	933.67291	1419.58606	-551.90021	904.4519	1382.70776	-501.42419	864.84509	1396.67773	-697.08588	1461.27686	1774.52502	-754.24976	1286.33801	1867.33057	-760.08118	1143.36206	1904.00696	-738.83838	1027.24158	1935.62439	-692.3634	898.93622	1931.14063	-741.68298	898.49677	1957.60339	-705.70801	837.29932	1970.41443	-625.63422	936.0144	1473.03601	-592.66681	957.9986	1714.90442	-818.9353	1002.26355	1561.94995	-809.40924	1015.69562	1679.03687	-734.7879	621.39716	1434.17053	-784.34662	444.09714	1456.4248	-947.19788	354.17474	1466.83667	-1107.6969	205.83409	1505.40173	-1139.75024	220.60675	1560.82007	-1063.97632	53.96224	1507.47473	-584.56964	676.02356	1806.66858	-547.27325	468.10706	1770.479	-576.05298	283.27203	1796.49146	-595.8407	89.66577	1778.30945	-640.45117	34.08566	1735.1521	-443.26956	35.82347	1767.22412	-675.77081	1773.81421	1617.85608	2845.97729	1034.40063	-3357.23877
21	0.2	-561.35443	1711.21558	1530.5293	-562.42834	1693.93762	1673.93225	-691.07123	1635.94177	1522.2782	-705.21741	1617.32019	1663.72705	-751.37921	1498.34204	1590.10767	-810.47095	1225.1106	1604.07153	-614.08612	1428.40808	1581.49292	-565.23944	1255.53064	1590.23755	-814.02234	1325.29236	1655.13843	-678.39056	1470.92041	1410.78955	-683.82483	1268.79871	1332.34399	-671.38324	1122.91772	1325.98621	-609.65649	1004.82861	1346.95691	-515.79333	931.27264	1415.46936	-549.38525	902.91632	1379.89502	-499.50531	862.11047	1391.34106	-683.1814	1464.38806	1776.3468	-737.5788	1288.71252	1870.50464	-740.74493	1145.82544	1907.11755	-717.70886	1030.08179	1938.43835	-669.76068	902.30084	1933.46155	-718.88507	901.34656	1960.5166	-681.91925	840.6853	1973.12927	-612.91632	938.76385	1474.66223	-578.80994	960.13678	1716.87122	-806.35181	1005.49377	1564.85742	-796.22058	1018.87927	1681.72009	-713.52277	623.86224	1435.2218	-756.77991	445.14288	1456.55676	-920.1167	358.34143	1466.67505	-1082.1178	213.06541	1508.55017	-1114.16101	226.39902	1565.19958	-1038.99463	61.3038	1504.74915	-577.60944	675.93024	1808.02905	-542.94177	468.39893	1771.89331	-574.70123	283.689	1797.54956	-595.6178	89.93952	1778.55249	-640.53668	34.08826	1735.16675	-443.39856	35.84277	1767.21155	-663.51044	1776.98938	1619.43115	2845.88672	1034.55273	-3357.59619
22	0.21	-549.38696	1714.39014	1531.38379	-549.74481	1697.2395	1674.95142	-678.96527	1639.03589	1523.75366	-692.61066	1620.36365	1664.92883	-738.53577	1501.87305	1592.51477	-797.67755	1228.24329	1607.05115	-601.4292	1431.71082	1582.87537	-552.64343	1258.6283	1591.35913	-800.83618	1328.39661	1658.08459	-667.34467	1473.69385	1412.44971	-674.66357	1271.51917	1334.31384	-664.46869	1126.12622	1327.47974	-604.9502	1005.51965	1346.41931	-511.33658	928.89209	1411.28552	-546.56366	901.77985	1377.13269	-498.16846	859.09833	1386.32703	-668.58496	1468.19287	1778.3717	-720.84705	1291.49731	1872.84546	-721.26624	1148.60254	1910.01355	-696.48895	1033.17554	1941.03235	-647.1731	906.02582	1935.39429	-695.91339	904.46112	1963.11682	-657.91333	844.36304	1975.52441	-600.41882	941.89197	1475.48608	-566.23401	961.67212	1717.68823	-793.84021	1008.49921	1567.76025	-783.32349	1022.17523	1684.37354	-693.51788	627.22803	1436.13965	-729.38818	447.62192	1457.29333	-892.65851	363.10648	1468.34412	-1055.45667	218.91029	1511.86487	-1086.95923	230.5222	1569.49072	-1012.49487	67.49327	1501.62195	-571.34625	675.20532	1809.12183	-538.74548	468.05524	1772.81079	-573.14343	284.05167	1798.78784	-595.68109	90.01006	1778.45959	-640.66449	34.11484	1735.22058	-443.52173	36.11885	1767.46619	-651.14441	1780.07874	1620.83948	NaN	NaN	NaN
23	0.22	-537.21106	1717.72815	1532.24634	-537.03955	1700.57703	1675.75732	-666.79584	1642.18311	1525.04333	-679.67963	1623.54199	1666.59021	-725.71912	1505.32166	1594.68213	-785.02319	1231.52454	1609.91858	-588.98138	1434.85754	1583.85437	-540.1452	1261.76904	1592.31421	-787.59723	1332.07654	1661.61865	-656.33075	1476.5332	1414.0354	-665.86676	1274.41553	1336.00146	-656.93884	1128.86487	1329.20898	-601.00073	1006.87921	1345.36292	-507.39023	926.68359	1406.8927	-545.06927	900.98169	1373.68054	-497.56671	856.8208	1380.45032	-653.89581	1471.88428	1779.98547	-703.26532	1294.45764	1875.65869	-701.52264	1151.52466	1912.73804	-674.86017	1036.54224	1943.40112	-624.39941	909.73999	1937.11694	-672.7868	907.77063	1965.43323	-633.72919	848.41272	1977.73706	-588.49463	945.48553	1475.46497	-552.75714	963.73737	1718.93896	-781.63446	1011.5376	1570.87463	-770.39392	1025.22351	1686.96167	-673.23535	630.59753	1437.07019	-702.03094	451.41473	1458.22864	-864.53076	367.23734	1471.19812	-1027.68042	223.20261	1514.93201	-1058.91528	233.50615	1573.88525	-984.2373	72.91521	1498.23682	-564.50824	675.17468	1810.37427	-534.72534	467.96759	1774.12549	-571.13135	284.13309	1800.18628	-595.51654	90.14677	1778.90186	-640.8147	33.98446	1735.28015	-443.7818	36.03878	1767.59253	-638.72498	1783.27393	1622.04211	2846.17798	1034.36426	-3357.02637
24	0.23	-525.07916	1721.02063	1532.78369	-524.22534	1703.86926	1676.33936	-655.44653	1645.50891	1525.72742	-666.84741	1626.72278	1667.77209	-712.95032	1508.60693	1596.70935	-772.4425	1234.83545	1612.61914	-576.40967	1437.95422	1584.78809	-527.76074	1264.71094	1592.90234	-774.66614	1335.86731	1665.13025	-645.47119	1479.40967	1415.52173	-656.586	1277.33008	1337.86963	-649.39148	1131.71692	1331.13293	-597.20752	1008.17566	1344.16321	-504.2262	924.51282	1402.17419	-543.56378	900.44617	1370.22144	-498.06644	854.54016	1374.8252	-639.05603	1475.62463	1781.38989	-685.68231	1297.64099	1878.10327	-681.63538	1154.60864	1915.14453	-653.31152	1039.92004	1945.26746	-601.53821	913.94061	1938.39954	-649.58942	911.30963	1967.40723	-609.46686	852.64423	1979.46924	-577.01477	949.26117	1474.8678	-540.14484	965.49622	1719.51587	-769.5929	1014.65643	1573.86206	-757.62354	1028.2251	1689.49207	-652.96277	634.2467	1437.84229	-674.82568	455.85181	1459.0885	-836.24805	370.97418	1473.95313	-999.25909	226.18408	1517.86401	-1029.82129	234.58272	1577.79102	-953.88831	77.35699	1495.46057	-557.98456	675.50079	1811.39954	-531.07788	467.53958	1775.55408	-568.68066	283.87195	1801.45691	-596.14124	90.15697	1778.75439	-641.66418	34.55945	1735.43262	-444.02625	36.15704	1767.77942	-626.25983	1786.35876	1623.00964	NaN	NaN	NaN
